ffmpeg started on 2026-01-06 at 17:49:57
Report written to "D:\Convert\FFMetrics\reports\ssim_report-6.txt"
Log level: 32
Command line:
ffmpeg -hide_banner -nostdin -r 24000/1001 -i "F:\\\xc0\xed\xe8\xec\xe5\\\xce\xed\xe3\xee\xe8\xed\xe3\xe8\\!_37_\xc7\xe8\xec\xe0_2025\\JamClub\\\xc4\xee\xea\xf2\xee\xf0 \xd1\xf2\xee\xf3\xed\\\xd2\xc2-4\\JamClub_Dr_Stone_Science_Future_03_1080p_HEVC(54).mkv" -r 24000/1001 -i "F:\\\xc0\xed\xe8\xec\xe5\\\xce\xed\xe3\xee\xe8\xed\xe3\xe8\\!_37_\xc7\xe8\xec\xe0_2025\\JamClub\\\xc4\xee\xea\xf2\xee\xf0 \xd1\xf2\xee\xf3\xed\\\xd2\xc2-4\\JamClub_Dr_Stone_Science_Future_03_1080p_HEVC.mkv" -lavfi "[0:v]settb=AVTB,setpts=PTS-STARTPTS,format=pix_fmts=yuv420p10le,fps=24000/1001,scale=1920:1080:flags=bicubic[main];[1:v]settb=AVTB,setpts=PTS-STARTPTS,format=pix_fmts=yuv420p10le,fps=24000/1001,scale=1920:1080:flags=bicubic[ref];[main][ref]ssim=eof_action=endall:stats_file='D\\:/Convert/FFMetrics/logs/ssim_logfile-6.txt'" -f null -
Input #0, matroska,webm, from 'F:\Аниме\Онгоинги\!_37_Зима_2025\JamClub\Доктор Стоун\ТВ-4\JamClub_Dr_Stone_Science_Future_03_1080p_HEVC(54).mkv':
  Metadata:
    COMPATIBLE_BRANDS: mp42mp41
    MAJOR_BRAND     : mp42
    MINOR_VERSION   : 0
    ENCODER         : Lavf61.7.100
  Duration: 00:24:22.17, start: -0.021000, bitrate: 1806 kb/s
  Stream #0:0(eng): Video: hevc (Main 10), yuv420p10le(tv, progressive), 1920x1080 [SAR 1:1 DAR 16:9], 23.98 fps, 23.98 tbr, 1k tbn (default)
      Metadata:
        HANDLER_NAME    : Mainconcept Video Media Handler
        VENDOR_ID       : [0][0][0][0]
        ENCODER         : Lavc61.19.100 libx265
        BPS             : 1609177
        DURATION        : 00:24:22.085708333
        NUMBER_OF_FRAMES: 35055
        NUMBER_OF_BYTES : 294094202
        _STATISTICS_WRITING_APP: mkvpropedit v94.0 ('Initiate') 64-bit
        _STATISTICS_WRITING_DATE_UTC: 2026-01-06 11:27:24
        _STATISTICS_TAGS: BPS DURATION NUMBER_OF_FRAMES NUMBER_OF_BYTES
  Stream #0:1(eng): Audio: aac (LC), 48000 Hz, stereo, fltp (default)
      Metadata:
        HANDLER_NAME    : #Mainconcept MP4 Sound Media Handler
        VENDOR_ID       : [0][0][0][0]
        ENCODER         : Lavc61.19.100 aac
        BPS             : 193637
        DURATION        : 00:24:22.144000000
        NUMBER_OF_FRAMES: 68539
        NUMBER_OF_BYTES : 35390813
        _STATISTICS_WRITING_APP: mkvpropedit v94.0 ('Initiate') 64-bit
        _STATISTICS_WRITING_DATE_UTC: 2026-01-06 11:27:24
        _STATISTICS_TAGS: BPS DURATION NUMBER_OF_FRAMES NUMBER_OF_BYTES
Input #1, matroska,webm, from 'F:\Аниме\Онгоинги\!_37_Зима_2025\JamClub\Доктор Стоун\ТВ-4\JamClub_Dr_Stone_Science_Future_03_1080p_HEVC.mkv':
  Metadata:
    COMPATIBLE_BRANDS: mp42mp41
    MAJOR_BRAND     : mp42
    MINOR_VERSION   : 0
    ENCODER         : Lavf61.7.100
  Duration: 00:24:22.17, start: -0.021000, bitrate: 1802 kb/s
  Stream #1:0(eng): Video: hevc (Main 10), yuv420p10le(tv, bt709/unknown/unknown, progressive), 1920x1080 [SAR 1:1 DAR 16:9], 23.98 fps, 23.98 tbr, 1k tbn (default)
      Metadata:
        HANDLER_NAME    : Mainconcept Video Media Handler
        VENDOR_ID       : [0][0][0][0]
        ENCODER         : Lavc61.19.100 libx265
        BPS             : 1604858
        DURATION        : 00:24:22.127708333
        NUMBER_OF_FRAMES: 35056
        NUMBER_OF_BYTES : 293313452
        _STATISTICS_WRITING_APP: mkvpropedit v94.0 ('Initiate') 64-bit
        _STATISTICS_WRITING_DATE_UTC: 2025-12-13 12:26:52
        _STATISTICS_TAGS: BPS DURATION NUMBER_OF_FRAMES NUMBER_OF_BYTES
  Stream #1:1(eng): Audio: aac (LC), 48000 Hz, stereo, fltp (default)
      Metadata:
        HANDLER_NAME    : #Mainconcept MP4 Sound Media Handler
        VENDOR_ID       : [0][0][0][0]
        ENCODER         : Lavc61.19.100 aac
        BPS             : 193637
        DURATION        : 00:24:22.144000000
        NUMBER_OF_FRAMES: 68539
        NUMBER_OF_BYTES : 35390813
        _STATISTICS_WRITING_APP: mkvpropedit v94.0 ('Initiate') 64-bit
        _STATISTICS_WRITING_DATE_UTC: 2025-12-13 12:26:52
        _STATISTICS_TAGS: BPS DURATION NUMBER_OF_FRAMES NUMBER_OF_BYTES
Stream mapping:
  Stream #0:0 (hevc) -> settb:default
  Stream #1:0 (hevc) -> settb:default
  ssim:default -> Stream #0:0 (wrapped_avframe)
  Stream #0:1 -> #0:1 (aac (native) -> pcm_s16le (native))
Output #0, null, to 'pipe:':
  Metadata:
    COMPATIBLE_BRANDS: mp42mp41
    MAJOR_BRAND     : mp42
    MINOR_VERSION   : 0
    encoder         : Lavf61.7.100
  Stream #0:0: Video: wrapped_avframe, yuv420p10le(tv, progressive), 1920x1080 [SAR 1:1 DAR 16:9], q=2-31, 200 kb/s, 23.98 fps, 23.98 tbn
      Metadata:
        encoder         : Lavc61.19.100 wrapped_avframe
  Stream #0:1(eng): Audio: pcm_s16le, 48000 Hz, stereo, s16, 1536 kb/s (default)
      Metadata:
        HANDLER_NAME    : #Mainconcept MP4 Sound Media Handler
        VENDOR_ID       : [0][0][0][0]
        _STATISTICS_TAGS: BPS DURATION NUMBER_OF_FRAMES NUMBER_OF_BYTES
        BPS             : 193637
        DURATION        : 00:24:22.144000000
        NUMBER_OF_FRAMES: 68539
        NUMBER_OF_BYTES : 35390813
        _STATISTICS_WRITING_APP: mkvpropedit v94.0 ('Initiate') 64-bit
        _STATISTICS_WRITING_DATE_UTC: 2026-01-06 11:27:24
        encoder         : Lavc61.19.100 pcm_s16le
frame=  108 fps=0.0 q=-0.0 size=N/A time=00:00:04.50 bitrate=N/A speed=8.77x    frame=  263 fps=253 q=-0.0 size=N/A time=00:00:10.96 bitrate=N/A speed=10.6x    frame=  436 fps=282 q=-0.0 size=N/A time=00:00:18.18 bitrate=N/A speed=11.7x    frame=  668 fps=322 q=-0.0 size=N/A time=00:00:27.86 bitrate=N/A speed=13.4x    frame=  878 fps=340 q=-0.0 size=N/A time=00:00:36.61 bitrate=N/A speed=14.2x    frame= 1096 fps=353 q=-0.0 size=N/A time=00:00:45.71 bitrate=N/A speed=14.7x    frame= 1313 fps=363 q=-0.0 size=N/A time=00:00:54.76 bitrate=N/A speed=15.1x    frame= 1544 fps=374 q=-0.0 size=N/A time=00:01:04.39 bitrate=N/A speed=15.6x    frame= 1774 fps=381 q=-0.0 size=N/A time=00:01:13.99 bitrate=N/A speed=15.9x    frame= 1995 fps=386 q=-0.0 size=N/A time=00:01:23.20 bitrate=N/A speed=16.1x    frame= 2227 fps=393 q=-0.0 size=N/A time=00:01:32.88 bitrate=N/A speed=16.4x    frame= 2465 fps=398 q=-0.0 size=N/A time=00:01:42.81 bitrate=N/A speed=16.6x    frame= 2690 fps=401 q=-0.0 size=N/A time=00:01:52.19 bitrate=N/A speed=16.7x    frame= 2926 fps=405 q=-0.0 size=N/A time=00:02:02.03 bitrate=N/A speed=16.9x    frame= 3133 fps=405 q=-0.0 size=N/A time=00:02:10.67 bitrate=N/A speed=16.9x    frame= 3352 fps=406 q=-0.0 size=N/A time=00:02:19.80 bitrate=N/A speed=16.9x    frame= 3566 fps=407 q=-0.0 size=N/A time=00:02:28.73 bitrate=N/A speed=  17x    frame= 3775 fps=407 q=-0.0 size=N/A time=00:02:37.44 bitrate=N/A speed=  17x    frame= 3967 fps=404 q=-0.0 size=N/A time=00:02:45.45 bitrate=N/A speed=16.9x    frame= 4162 fps=403 q=-0.0 size=N/A time=00:02:53.59 bitrate=N/A speed=16.8x    frame= 4343 fps=401 q=-0.0 size=N/A time=00:03:01.13 bitrate=N/A speed=16.7x    frame= 4543 fps=401 q=-0.0 size=N/A time=00:03:09.48 bitrate=N/A speed=16.7x    frame= 4761 fps=401 q=-0.0 size=N/A time=00:03:18.57 bitrate=N/A speed=16.7x    frame= 4958 fps=401 q=-0.0 size=N/A time=00:03:26.78 bitrate=N/A speed=16.7x    frame= 5169 fps=401 q=-0.0 size=N/A time=00:03:35.59 bitrate=N/A speed=16.7x    frame= 5358 fps=400 q=-0.0 size=N/A time=00:03:43.47 bitrate=N/A speed=16.7x    frame= 5570 fps=400 q=-0.0 size=N/A time=00:03:52.31 bitrate=N/A speed=16.7x    frame= 5788 fps=401 q=-0.0 size=N/A time=00:04:01.40 bitrate=N/A speed=16.7x    frame= 6007 fps=401 q=-0.0 size=N/A time=00:04:10.54 bitrate=N/A speed=16.7x    frame= 6212 fps=401 q=-0.0 size=N/A time=00:04:19.09 bitrate=N/A speed=16.7x    frame= 6444 fps=402 q=-0.0 size=N/A time=00:04:28.76 bitrate=N/A speed=16.8x    frame= 6654 fps=403 q=-0.0 size=N/A time=00:04:37.52 bitrate=N/A speed=16.8x    frame= 6816 fps=400 q=-0.0 size=N/A time=00:04:44.28 bitrate=N/A speed=16.7x    frame= 6957 fps=397 q=-0.0 size=N/A time=00:04:50.16 bitrate=N/A speed=16.5x    frame= 7110 fps=394 q=-0.0 size=N/A time=00:04:56.54 bitrate=N/A speed=16.4x    frame= 7262 fps=391 q=-0.0 size=N/A time=00:05:02.88 bitrate=N/A speed=16.3x    frame= 7429 fps=389 q=-0.0 size=N/A time=00:05:09.85 bitrate=N/A speed=16.2x    frame= 7601 fps=388 q=-0.0 size=N/A time=00:05:17.02 bitrate=N/A speed=16.2x    frame= 7742 fps=385 q=-0.0 size=N/A time=00:05:22.90 bitrate=N/A speed=  16x    frame= 7879 fps=382 q=-0.0 size=N/A time=00:05:28.61 bitrate=N/A speed=15.9x    frame= 8023 fps=379 q=-0.0 size=N/A time=00:05:34.62 bitrate=N/A speed=15.8x    frame= 8155 fps=376 q=-0.0 size=N/A time=00:05:40.13 bitrate=N/A speed=15.7x    frame= 8297 fps=374 q=-0.0 size=N/A time=00:05:46.05 bitrate=N/A speed=15.6x    frame= 8486 fps=374 q=-0.0 size=N/A time=00:05:53.93 bitrate=N/A speed=15.6x    frame= 8638 fps=372 q=-0.0 size=N/A time=00:06:00.27 bitrate=N/A speed=15.5x    frame= 8824 fps=372 q=-0.0 size=N/A time=00:06:08.03 bitrate=N/A speed=15.5x    frame= 9032 fps=372 q=-0.0 size=N/A time=00:06:16.70 bitrate=N/A speed=15.5x    frame= 9190 fps=371 q=-0.0 size=N/A time=00:06:23.29 bitrate=N/A speed=15.5x    frame= 9402 fps=372 q=-0.0 size=N/A time=00:06:32.14 bitrate=N/A speed=15.5x    frame= 9599 fps=372 q=-0.0 size=N/A time=00:06:40.35 bitrate=N/A speed=15.5x    frame= 9812 fps=373 q=-0.0 size=N/A time=00:06:49.24 bitrate=N/A speed=15.6x    frame=10002 fps=373 q=-0.0 size=N/A time=00:06:57.16 bitrate=N/A speed=15.5x    frame=10189 fps=373 q=-0.0 size=N/A time=00:07:04.96 bitrate=N/A speed=15.5x    frame=10379 fps=373 q=-0.0 size=N/A time=00:07:12.89 bitrate=N/A speed=15.5x    frame=10586 fps=373 q=-0.0 size=N/A time=00:07:21.52 bitrate=N/A speed=15.6x    frame=10783 fps=373 q=-0.0 size=N/A time=00:07:29.74 bitrate=N/A speed=15.6x    frame=10964 fps=373 q=-0.0 size=N/A time=00:07:37.29 bitrate=N/A speed=15.5x    frame=11151 fps=373 q=-0.0 size=N/A time=00:07:45.08 bitrate=N/A speed=15.5x    frame=11351 fps=373 q=-0.0 size=N/A time=00:07:53.43 bitrate=N/A speed=15.6x    frame=11516 fps=372 q=-0.0 size=N/A time=00:08:00.31 bitrate=N/A speed=15.5x    frame=11704 fps=372 q=-0.0 size=N/A time=00:08:08.15 bitrate=N/A speed=15.5x    frame=11880 fps=371 q=-0.0 size=N/A time=00:08:15.49 bitrate=N/A speed=15.5x    frame=12069 fps=371 q=-0.0 size=N/A time=00:08:23.37 bitrate=N/A speed=15.5x    frame=12276 fps=372 q=-0.0 size=N/A time=00:08:32.01 bitrate=N/A speed=15.5x    frame=12476 fps=372 q=-0.0 size=N/A time=00:08:40.35 bitrate=N/A speed=15.5x    frame=12686 fps=372 q=-0.0 size=N/A time=00:08:49.11 bitrate=N/A speed=15.5x    frame=12903 fps=373 q=-0.0 size=N/A time=00:08:58.16 bitrate=N/A speed=15.6x    frame=13117 fps=374 q=-0.0 size=N/A time=00:09:07.08 bitrate=N/A speed=15.6x    frame=13306 fps=374 q=-0.0 size=N/A time=00:09:14.97 bitrate=N/A speed=15.6x    frame=13493 fps=373 q=-0.0 size=N/A time=00:09:22.77 bitrate=N/A speed=15.6x    frame=13618 fps=372 q=-0.0 size=N/A time=00:09:27.98 bitrate=N/A speed=15.5x    frame=13812 fps=372 q=-0.0 size=N/A time=00:09:36.07 bitrate=N/A speed=15.5x    frame=14024 fps=372 q=-0.0 size=N/A time=00:09:44.91 bitrate=N/A speed=15.5x    frame=14191 fps=372 q=-0.0 size=N/A time=00:09:51.88 bitrate=N/A speed=15.5x    frame=14347 fps=371 q=-0.0 size=N/A time=00:09:58.38 bitrate=N/A speed=15.5x    frame=14518 fps=370 q=-0.0 size=N/A time=00:10:05.52 bitrate=N/A speed=15.4x    frame=14675 fps=369 q=-0.0 size=N/A time=00:10:12.06 bitrate=N/A speed=15.4x    frame=14873 fps=369 q=-0.0 size=N/A time=00:10:20.32 bitrate=N/A speed=15.4x    frame=15068 fps=370 q=-0.0 size=N/A time=00:10:28.46 bitrate=N/A speed=15.4x    frame=15241 fps=369 q=-0.0 size=N/A time=00:10:35.67 bitrate=N/A speed=15.4x    frame=15424 fps=369 q=-0.0 size=N/A time=00:10:43.30 bitrate=N/A speed=15.4x    frame=15613 fps=369 q=-0.0 size=N/A time=00:10:51.19 bitrate=N/A speed=15.4x    frame=15786 fps=368 q=-0.0 size=N/A time=00:10:58.40 bitrate=N/A speed=15.4x    frame=15980 fps=369 q=-0.0 size=N/A time=00:11:06.49 bitrate=N/A speed=15.4x    frame=16195 fps=369 q=-0.0 size=N/A time=00:11:15.46 bitrate=N/A speed=15.4x    frame=16387 fps=369 q=-0.0 size=N/A time=00:11:23.47 bitrate=N/A speed=15.4x    frame=16563 fps=369 q=-0.0 size=N/A time=00:11:30.81 bitrate=N/A speed=15.4x    frame=16729 fps=368 q=-0.0 size=N/A time=00:11:37.73 bitrate=N/A speed=15.4x    frame=16907 fps=368 q=-0.0 size=N/A time=00:11:45.16 bitrate=N/A speed=15.4x    frame=17090 fps=368 q=-0.0 size=N/A time=00:11:52.79 bitrate=N/A speed=15.3x    frame=17295 fps=368 q=-0.0 size=N/A time=00:12:01.34 bitrate=N/A speed=15.4x    frame=17491 fps=368 q=-0.0 size=N/A time=00:12:09.52 bitrate=N/A speed=15.4x    frame=17703 fps=369 q=-0.0 size=N/A time=00:12:18.36 bitrate=N/A speed=15.4x    frame=17917 fps=369 q=-0.0 size=N/A time=00:12:27.28 bitrate=N/A speed=15.4x    frame=18103 fps=369 q=-0.0 size=N/A time=00:12:35.04 bitrate=N/A speed=15.4x    frame=18328 fps=370 q=-0.0 size=N/A time=00:12:44.43 bitrate=N/A speed=15.4x    frame=18538 fps=370 q=-0.0 size=N/A time=00:12:53.18 bitrate=N/A speed=15.4x    frame=18744 fps=371 q=-0.0 size=N/A time=00:13:01.78 bitrate=N/A speed=15.5x    frame=18941 fps=371 q=-0.0 size=N/A time=00:13:09.99 bitrate=N/A speed=15.5x    frame=19134 fps=371 q=-0.0 size=N/A time=00:13:18.04 bitrate=N/A speed=15.5x    frame=19351 fps=371 q=-0.0 size=N/A time=00:13:27.09 bitrate=N/A speed=15.5x    frame=19556 fps=372 q=-0.0 size=N/A time=00:13:35.64 bitrate=N/A speed=15.5x    frame=19758 fps=372 q=-0.0 size=N/A time=00:13:44.07 bitrate=N/A speed=15.5x    frame=19978 fps=372 q=-0.0 size=N/A time=00:13:53.24 bitrate=N/A speed=15.5x    frame=20197 fps=373 q=-0.0 size=N/A time=00:14:02.38 bitrate=N/A speed=15.5x    frame=20416 fps=373 q=-0.0 size=N/A time=00:14:11.51 bitrate=N/A speed=15.6x    frame=20630 fps=374 q=-0.0 size=N/A time=00:14:20.44 bitrate=N/A speed=15.6x    frame=20802 fps=373 q=-0.0 size=N/A time=00:14:27.61 bitrate=N/A speed=15.6x    frame=20981 fps=373 q=-0.0 size=N/A time=00:14:35.08 bitrate=N/A speed=15.6x    frame=21174 fps=373 q=-0.0 size=N/A time=00:14:43.13 bitrate=N/A speed=15.6x    frame=21375 fps=373 q=-0.0 size=N/A time=00:14:51.51 bitrate=N/A speed=15.6x    frame=21549 fps=373 q=-0.0 size=N/A time=00:14:58.77 bitrate=N/A speed=15.5x    frame=21726 fps=372 q=-0.0 size=N/A time=00:15:06.15 bitrate=N/A speed=15.5x    frame=21937 fps=373 q=-0.0 size=N/A time=00:15:14.95 bitrate=N/A speed=15.5x    frame=22122 fps=373 q=-0.0 size=N/A time=00:15:22.67 bitrate=N/A speed=15.5x    frame=22341 fps=373 q=-0.0 size=N/A time=00:15:31.80 bitrate=N/A speed=15.6x    frame=22564 fps=374 q=-0.0 size=N/A time=00:15:41.10 bitrate=N/A speed=15.6x    frame=22775 fps=374 q=-0.0 size=N/A time=00:15:49.90 bitrate=N/A speed=15.6x    frame=22980 fps=374 q=-0.0 size=N/A time=00:15:58.45 bitrate=N/A speed=15.6x    frame=23189 fps=374 q=-0.0 size=N/A time=00:16:07.17 bitrate=N/A speed=15.6x    frame=23393 fps=375 q=-0.0 size=N/A time=00:16:15.68 bitrate=N/A speed=15.6x    frame=23608 fps=375 q=-0.0 size=N/A time=00:16:24.65 bitrate=N/A speed=15.6x    frame=23812 fps=375 q=-0.0 size=N/A time=00:16:33.15 bitrate=N/A speed=15.6x    frame=24009 fps=375 q=-0.0 size=N/A time=00:16:41.37 bitrate=N/A speed=15.6x    frame=24207 fps=375 q=-0.0 size=N/A time=00:16:49.63 bitrate=N/A speed=15.6x    frame=24434 fps=376 q=-0.0 size=N/A time=00:16:59.10 bitrate=N/A speed=15.7x    frame=24653 fps=376 q=-0.0 size=N/A time=00:17:08.23 bitrate=N/A speed=15.7x    frame=24864 fps=376 q=-0.0 size=N/A time=00:17:17.03 bitrate=N/A speed=15.7x    frame=25090 fps=377 q=-0.0 size=N/A time=00:17:26.46 bitrate=N/A speed=15.7x    frame=25313 fps=377 q=-0.0 size=N/A time=00:17:35.76 bitrate=N/A speed=15.7x    frame=25530 fps=378 q=-0.0 size=N/A time=00:17:44.81 bitrate=N/A speed=15.7x    frame=25747 fps=378 q=-0.0 size=N/A time=00:17:53.86 bitrate=N/A speed=15.8x    frame=25969 fps=378 q=-0.0 size=N/A time=00:18:03.12 bitrate=N/A speed=15.8x    frame=26201 fps=379 q=-0.0 size=N/A time=00:18:12.80 bitrate=N/A speed=15.8x    frame=26410 fps=379 q=-0.0 size=N/A time=00:18:21.51 bitrate=N/A speed=15.8x    frame=26627 fps=379 q=-0.0 size=N/A time=00:18:30.56 bitrate=N/A speed=15.8x    frame=26849 fps=380 q=-0.0 size=N/A time=00:18:39.82 bitrate=N/A speed=15.8x    frame=27069 fps=380 q=-0.0 size=N/A time=00:18:49.00 bitrate=N/A speed=15.8x    frame=27285 fps=380 q=-0.0 size=N/A time=00:18:58.01 bitrate=N/A speed=15.9x    frame=27517 fps=381 q=-0.0 size=N/A time=00:19:07.68 bitrate=N/A speed=15.9x    frame=27714 fps=381 q=-0.0 size=N/A time=00:19:15.90 bitrate=N/A speed=15.9x    frame=27936 fps=381 q=-0.0 size=N/A time=00:19:25.16 bitrate=N/A speed=15.9x    frame=28134 fps=381 q=-0.0 size=N/A time=00:19:33.42 bitrate=N/A speed=15.9x    frame=28336 fps=381 q=-0.0 size=N/A time=00:19:41.84 bitrate=N/A speed=15.9x    frame=28538 fps=381 q=-0.0 size=N/A time=00:19:50.27 bitrate=N/A speed=15.9x    frame=28752 fps=381 q=-0.0 size=N/A time=00:19:59.19 bitrate=N/A speed=15.9x    frame=28961 fps=382 q=-0.0 size=N/A time=00:20:07.91 bitrate=N/A speed=15.9x    frame=29179 fps=382 q=-0.0 size=N/A time=00:20:17.00 bitrate=N/A speed=15.9x    frame=29389 fps=382 q=-0.0 size=N/A time=00:20:25.76 bitrate=N/A speed=15.9x    frame=29615 fps=382 q=-0.0 size=N/A time=00:20:35.19 bitrate=N/A speed=  16x    frame=29804 fps=382 q=-0.0 size=N/A time=00:20:43.07 bitrate=N/A speed=15.9x    frame=29989 fps=382 q=-0.0 size=N/A time=00:20:50.79 bitrate=N/A speed=15.9x    frame=30164 fps=382 q=-0.0 size=N/A time=00:20:58.09 bitrate=N/A speed=15.9x    frame=30337 fps=382 q=-0.0 size=N/A time=00:21:05.30 bitrate=N/A speed=15.9x    frame=30532 fps=382 q=-0.0 size=N/A time=00:21:13.43 bitrate=N/A speed=15.9x    frame=30711 fps=381 q=-0.0 size=N/A time=00:21:20.90 bitrate=N/A speed=15.9x    frame=30899 fps=381 q=-0.0 size=N/A time=00:21:28.74 bitrate=N/A speed=15.9x    frame=31124 fps=382 q=-0.0 size=N/A time=00:21:38.13 bitrate=N/A speed=15.9x    frame=31349 fps=382 q=-0.0 size=N/A time=00:21:47.51 bitrate=N/A speed=15.9x    frame=31546 fps=382 q=-0.0 size=N/A time=00:21:55.73 bitrate=N/A speed=15.9x    frame=31767 fps=382 q=-0.0 size=N/A time=00:22:04.94 bitrate=N/A speed=15.9x    frame=31988 fps=383 q=-0.0 size=N/A time=00:22:14.16 bitrate=N/A speed=  16x    frame=32214 fps=383 q=-0.0 size=N/A time=00:22:23.59 bitrate=N/A speed=  16x    frame=32424 fps=383 q=-0.0 size=N/A time=00:22:32.35 bitrate=N/A speed=  16x    frame=32655 fps=383 q=-0.0 size=N/A time=00:22:41.98 bitrate=N/A speed=  16x    frame=32866 fps=384 q=-0.0 size=N/A time=00:22:50.78 bitrate=N/A speed=  16x    frame=33078 fps=384 q=-0.0 size=N/A time=00:22:59.62 bitrate=N/A speed=  16x    frame=33277 fps=384 q=-0.0 size=N/A time=00:23:07.92 bitrate=N/A speed=  16x    frame=33465 fps=384 q=-0.0 size=N/A time=00:23:15.76 bitrate=N/A speed=  16x    frame=33660 fps=384 q=-0.0 size=N/A time=00:23:23.90 bitrate=N/A speed=  16x    frame=33867 fps=384 q=-0.0 size=N/A time=00:23:32.53 bitrate=N/A speed=  16x    frame=34070 fps=384 q=-0.0 size=N/A time=00:23:41.00 bitrate=N/A speed=  16x    frame=34262 fps=384 q=-0.0 size=N/A time=00:23:49.01 bitrate=N/A speed=  16x    frame=34415 fps=383 q=-0.0 size=N/A time=00:23:55.39 bitrate=N/A speed=  16x    frame=34568 fps=383 q=-0.0 size=N/A time=00:24:01.77 bitrate=N/A speed=  16x    frame=34763 fps=383 q=-0.0 size=N/A time=00:24:09.90 bitrate=N/A speed=  16x    frame=34971 fps=383 q=-0.0 size=N/A time=00:24:18.58 bitrate=N/A speed=  16x    [Parsed_ssim_10 @ 0000013c91a8e440] SSIM Y:0.994690 (22.749290) U:0.995321 (23.298203) V:0.995599 (23.564070) All:0.994947 (22.964284)
[out#0/null @ 0000013c9200ee80] video:15063KiB audio:274156KiB subtitle:0KiB other streams:0KiB global headers:0KiB muxing overhead: unknown
frame=35055 fps=383 q=-0.0 Lsize=N/A time=00:24:22.08 bitrate=N/A speed=  16x    
